<?xml version="1.0" encoding="utf-8"?>
<!-- Generator: Adobe Illustrator 16.0.4, SVG Export Plug-In . SVG Version: 6.00 Build 0)  -->
<!DOCTYPE svg PUBLIC "-//W3C//DTD SVG 1.1//EN" "http://www.w3.org/Graphics/SVG/1.1/DTD/svg11.dtd">
<svg version="1.1" id="Layer_1" xmlns="http://www.w3.org/2000/svg" xmlns:xlink="http://www.w3.org/1999/xlink" x="0px" y="0px"
	 width="183.683px" height="57.811px" viewBox="0 0 183.683 57.811" enable-background="new 0 0 183.683 57.811"
	 xml:space="preserve">
<g>
	<g>
		<path fill="#F36F45" d="M78.67,24.655c-1.362-0.389-2.042-0.519-2.886-0.519c-1.621,0-2.854,0.519-3.761,1.589
			c-0.811,0.94-1.135,1.686-1.33,3.243v5.998c0,1.752,0.065,2.691,0.227,4.216h-4.637c0.162-1.589,0.227-2.529,0.227-4.216V24.785
			c0-1.978-0.033-2.886-0.227-4.215h4.41v3.048c1.167-2.302,3.178-3.405,6.096-3.405c0.778,0,1.556,0.097,3.015,0.357L78.67,24.655z
			"/>
		<path fill="#F36F45" d="M94.497,37.073c-1.297,1.232-2.108,1.688-3.438,2.043c-0.94,0.26-1.978,0.39-3.015,0.39
			c-3.956,0-6.355-2.043-6.355-5.447c0-2.271,1.427-4.312,3.664-5.253c2.107-0.875,4.507-1.2,9.144-1.297v-1.654
			c0-1.881-1.265-2.854-3.729-2.854c-1.297,0-2.626,0.357-3.372,0.94c-0.616,0.454-0.908,0.908-1.297,2.075l-4.15-0.746
			c0.746-1.881,1.33-2.724,2.562-3.6c1.589-1.167,3.405-1.653,6.193-1.653c3.113,0,4.994,0.551,6.388,1.913
			c1.103,1.038,1.524,2.27,1.524,4.475v8.722c0,1.719,0.065,2.595,0.259,4.054h-4.377V37.073z M94.497,30.33
			c-6.193,0.13-8.625,1.2-8.625,3.729c0,1.524,1.135,2.464,2.95,2.464c1.719,0,3.405-0.648,4.507-1.719
			c0.778-0.777,1.167-1.718,1.167-2.854V30.33z"/>
		<path fill="#F36F45" d="M117.295,37.593c0-0.389,0-0.746,0.031-1.168c-1.686,2.367-3.404,3.211-6.549,3.211
			c-2.271,0-3.988-0.52-5.416-1.654c-2.172-1.686-3.371-4.637-3.371-8.138c0-5.934,3.404-9.695,8.754-9.695
			c2.011,0,3.664,0.487,4.929,1.492c0.584,0.454,0.94,0.843,1.653,1.783c0-0.389,0-0.389-0.031-1.038
			c-0.033-0.227-0.033-0.843-0.033-1.394v-3.243c0-1.945-0.064-3.015-0.227-4.377h4.572c-0.162,1.557-0.228,2.691-0.228,4.345
			v17.087c0,1.914,0.065,2.951,0.228,4.378h-4.312V37.593z M111.523,36.166c1.719,0,3.372-0.811,4.345-2.14
			c0.811-1.07,1.266-2.659,1.266-4.345c0-1.589-0.617-3.275-1.557-4.312c-1.006-1.103-2.659-1.816-4.216-1.816
			c-3.146,0-5.155,2.464-5.155,6.323C106.206,33.734,108.281,36.166,111.523,36.166z"/>
		<path fill="#F36F45" d="M140.288,39.409c-1.328-0.162-2.301-0.228-4.279-0.228h-7.458c-2.302,0-3.015,0.032-3.988,0.097v-3.437
			c1.038-1.005,1.687-1.751,2.464-2.756l6.259-7.912c0.324-0.389,0.519-0.648,0.907-1.038h-0.291
			c-0.26,0.033-0.648,0.033-1.168,0.033h-3.307c-1.719,0-2.918,0.065-4.216,0.227v-4.053c1.46,0.162,2.529,0.227,4.216,0.227h6.29
			c2.367,0,2.95,0,3.923-0.098v3.21c-0.973,1.038-1.814,1.978-2.464,2.789l-6.128,7.75c-0.064,0.13-0.13,0.162-0.389,0.454
			c-0.195,0.26-0.195,0.26-0.714,0.875c0.714-0.032,1.427-0.032,1.945-0.032h4.15c1.881,0,3.016-0.065,4.247-0.228V39.409z"/>
		<path fill="#F36F45" d="M146.549,30.946c0.162,1.783,0.454,2.69,1.199,3.631c0.941,1.168,2.4,1.816,4.054,1.816
			c1.589,0,2.95-0.584,3.892-1.621c0.389-0.455,0.615-0.812,0.939-1.687l3.826,1.231c-0.746,1.557-1.167,2.173-1.978,2.983
			c-1.687,1.653-3.956,2.497-6.68,2.497c-5.739,0-9.371-3.826-9.371-9.89c0-5.999,3.6-9.922,9.144-9.922
			c3.795,0,6.777,1.881,8.074,5.124c0.616,1.556,0.844,2.724,0.94,4.928c0,0.065,0,0.162,0.065,0.909H146.549z M156.439,27.735
			c-0.228-1.426-0.616-2.302-1.427-3.113c-0.875-0.875-1.979-1.297-3.502-1.297c-2.529,0-4.377,1.686-4.863,4.41H156.439z"/>
		<path fill="#F36F45" d="M163.868,39.182c0.195-1.395,0.26-2.399,0.26-4.216V24.785c0-1.784-0.064-2.886-0.26-4.215h4.41v1.718
			c0,0.486,0,0.584-0.064,1.395c1.977-2.529,3.695-3.437,6.614-3.437c2.497,0,4.345,0.811,5.513,2.399
			c0.777,1.07,1.102,2.367,1.102,4.54v7.781c0,1.783,0.064,3.016,0.26,4.216H177c0.162-1.459,0.227-2.562,0.227-4.216v-7.198
			c0-1.362-0.162-2.237-0.551-2.854c-0.52-0.843-1.492-1.33-2.725-1.33c-2.334,0-4.248,1.622-5.674,4.832v6.549
			c0,1.59,0.064,2.821,0.26,4.216H163.868z"/>
	</g>
	<circle fill="#FFFFFF" cx="28.905" cy="28.905" r="28.905"/>
	<path fill="#F36F45" d="M28.905,0C12.941,0,0,12.941,0,28.905c0,12.029,7.35,22.34,17.804,26.692
		C17.7,50.52,17.436,45.532,17.31,42.673h7.966c-0.334,1.891-0.5,8.516-0.461,14.844c1.337,0.189,2.701,0.294,4.09,0.294
		c15.963,0,28.905-12.941,28.905-28.905S44.869,0,28.905,0z M25.276,40.093H17.31c1.069-6.383,0.255-20.773,0-26.543h7.966
		C24.688,16.883,24.619,34.837,25.276,40.093z M37.311,25.741c3.042,0.736,8.618,4.101,8.618,4.101s-6.494,0.417-9.547-0.323
		c-2.411-0.577-4.159-2.256-4.78-2.937c-1.623,1.541-2.938,2.762-4.975,5.699l-0.511,0.101l-0.152-0.378l0.062-0.129
		c1.426-2.062,2.131-2.78,3.396-4.151l1.437-1.456c1.953-1.879,3.356-2.865,3.727-3.094c0.463-1.058,1.839-3.76,4.462-5.449
		c3.308-2.129,11.177-4.284,11.177-4.284S45,19.703,41.703,21.835c-2.441,1.571-5.248,1.797-6.563,1.814l-0.036,0.058
		c-0.024,0.006-1.159,0.728-2.855,2.25C33.351,25.641,35.294,25.248,37.311,25.741z"/>
</g>
<g>
</g>
<g>
</g>
<g>
</g>
<g>
</g>
<g>
</g>
<g>
</g>
</svg>
