<?xml version="1.0" encoding="UTF-8" standalone="no"?>
<svg width="323px" height="49px" viewBox="0 0 323 49" version="1.1" xmlns="http://www.w3.org/2000/svg" xmlns:xlink="http://www.w3.org/1999/xlink">
    <!-- Generator: sketchtool 39 (31667) - http://www.bohemiancoding.com/sketch -->
    <title>4D094295-376E-4EEB-9C47-0DADE6048873</title>
    <desc>Created with sketchtool.</desc>
    <defs></defs>
    <g id="Ultima-Dashboard" stroke="none" stroke-width="1" fill="none" fill-rule="evenodd">
        <g id="Desktop-HD-Dark-Menu" transform="translate(-370.000000, -259.000000)" fill="#D8D8D8">
            <g id="Content" transform="translate(359.000000, 153.000000)">
                <g id="Row-1">
                    <g id="Sales">
                        <g id="Sales---Graph" transform="translate(11.000000, 106.000000)">
                            <rect id="Rectangle-3" x="0" y="30" width="3" height="19"></rect>
                            <rect id="Rectangle-3" x="10" y="43" width="3" height="6"></rect>
                            <rect id="Rectangle-3" x="20" y="39" width="3" height="10"></rect>
                            <rect id="Rectangle-3" x="30" y="44" width="3" height="5"></rect>
                            <rect id="Rectangle-3" x="40" y="24" width="3" height="25"></rect>
                            <rect id="Rectangle-3" x="50" y="26" width="3" height="23"></rect>
                            <rect id="Rectangle-3" x="60" y="19" width="3" height="30"></rect>
                            <rect id="Rectangle-3" x="70" y="17" width="3" height="32"></rect>
                            <rect id="Rectangle-3" x="80" y="22" width="3" height="27"></rect>
                            <rect id="Rectangle-3" x="90" y="28" width="3" height="21"></rect>
                            <rect id="Rectangle-3" x="100" y="37" width="3" height="12"></rect>
                            <rect id="Rectangle-3" x="110" y="13" width="3" height="36"></rect>
                            <rect id="Rectangle-3" x="120" y="35" width="3" height="14"></rect>
                            <rect id="Rectangle-3" x="130" y="37" width="3" height="12"></rect>
                            <rect id="Rectangle-3" x="140" y="30" width="3" height="19"></rect>
                            <rect id="Rectangle-3" x="150" y="19" width="3" height="30"></rect>
                            <rect id="Rectangle-3" x="160" y="24" width="3" height="25"></rect>
                            <rect id="Rectangle-3" x="170" y="43" width="3" height="6"></rect>
                            <rect id="Rectangle-3" x="180" y="42" width="3" height="7"></rect>
                            <rect id="Rectangle-3" x="190" y="44" width="3" height="5"></rect>
                            <rect id="Rectangle-3" x="200" y="43" width="3" height="6"></rect>
                            <rect id="Rectangle-3" x="210" y="39" width="3" height="10"></rect>
                            <rect id="Rectangle-3" x="220" y="46" width="3" height="3"></rect>
                            <rect id="Rectangle-3" x="230" y="34" width="3" height="15"></rect>
                            <rect id="Rectangle-3" x="240" y="24" width="3" height="25"></rect>
                            <rect id="Rectangle-3" x="250" y="25" width="3" height="24"></rect>
                            <rect id="Rectangle-3" x="260" y="16" width="3" height="33"></rect>
                            <rect id="Rectangle-3" x="270" y="21" width="3" height="28"></rect>
                            <rect id="Rectangle-3" x="280" y="10" width="3" height="39"></rect>
                            <rect id="Rectangle-3" x="290" y="7" width="3" height="42"></rect>
                            <rect id="Rectangle-3" x="300" y="0" width="3" height="49"></rect>
                            <rect id="Rectangle-3" x="310" y="12" width="3" height="37"></rect>
                            <rect id="Rectangle-3" x="320" y="5" width="3" height="44"></rect>
                        </g>
                    </g>
                </g>
            </g>
        </g>
    </g>
</svg>