<svg width="80" height="80" viewBox="0 0 274 270" version="1.1" xmlns="http://www.w3.org/2000/svg" xmlns:xlink="http://www.w3.org/1999/xlink">
<title>Canvas</title>
<desc>Created using Figma</desc>
<g id="Canvas" transform="translate(137 135)">
<g id="Canvas">
<g id="Vector">
<g id="Vector">
<use xlink:href="#path0_fill" transform="translate(-136.967 -134.5)" fill="#F36F45"/>
</g>
</g>
</g>
</g>
<defs>
<path id="path0_fill" d="M 136.966 0C 61.321 0 0 60.2157 0 134.498C 0 190.47 34.828 238.448 84.3643 258.698C 83.8715 235.074 82.6205 211.865 82.0235 198.561L 119.77 198.561C 118.188 207.36 117.401 238.187 117.586 267.632C 123.921 268.511 130.385 269 136.966 269C 212.607 269 273.933 208.784 273.933 134.502C 273.933 60.2203 212.612 0 136.966 0ZM 119.77 186.556L 82.0235 186.556C 87.0889 156.856 83.2318 89.8978 82.0235 63.0494L 119.77 63.0494C 116.984 78.5582 116.657 162.1 119.77 186.556ZM 176.798 119.775C 191.213 123.2 217.635 138.858 217.635 138.858C 217.635 138.858 186.863 140.798 172.396 137.355C 160.972 134.67 152.689 126.857 149.746 123.689C 142.056 130.859 135.824 136.54 126.172 150.207L 123.751 150.676L 123.03 148.918L 123.324 148.317C 130.081 138.723 133.422 135.382 139.416 129.002L 146.225 122.227C 155.48 113.484 162.128 108.896 163.886 107.831C 166.08 102.908 172.6 90.3352 185.029 82.4761C 200.704 72.5697 237.991 62.5422 237.991 62.5422C 237.991 62.5422 213.233 91.6799 197.61 101.6C 186.043 108.91 172.742 109.962 166.511 110.041L 166.34 110.311C 166.227 110.339 160.848 113.698 152.812 120.78C 158.034 119.31 167.241 117.481 176.798 119.775Z"/>
</defs>
</svg>
