<?xml version="1.0" encoding="UTF-8" standalone="no"?>
<svg width="1334px" height="313px" viewBox="0 0 1334 313" version="1.1" xmlns="http://www.w3.org/2000/svg" xmlns:xlink="http://www.w3.org/1999/xlink">
    <!-- Generator: sketchtool 39 (31667) - http://www.bohemiancoding.com/sketch -->
    <title>13C26429-22F8-48F0-9BC6-01F28C68B629</title>
    <desc>Created with sketchtool.</desc>
    <defs></defs>
    <g id="Default-Pages" stroke="none" stroke-width="1" fill="none" fill-rule="evenodd" opacity="0.100000001">
        <g id="Error" transform="translate(-59.000000, -213.000000)" fill="#FFFFFF">
            <path d="M247.614258,392.65918 L132.793945,392.65918 L132.793945,464.837891 L268.415039,464.837891 L268.415039,521 L59.7832031,521 L59.7832031,218.140625 L268.831055,218.140625 L268.831055,274.510742 L132.793945,274.510742 L132.793945,338.369141 L247.614258,338.369141 L247.614258,392.65918 Z M410.692383,414.083984 L371.170898,414.083984 L371.170898,521 L298.160156,521 L298.160156,218.140625 L417.348633,218.140625 C453.264828,218.140625 481.345602,226.114178 501.591797,242.061523 C521.837992,258.008869 531.960938,280.542823 531.960938,309.664062 C531.960938,330.742293 527.69682,348.214774 519.168457,362.082031 C510.640094,375.949288 497.29306,387.181598 479.126953,395.779297 L542.361328,517.879883 L542.361328,521 L464.150391,521 L410.692383,414.083984 Z M371.170898,357.713867 L417.348633,357.713867 C431.21589,357.713867 441.650844,354.073767 448.653809,346.793457 C455.656773,339.513147 459.158203,329.355534 459.158203,316.320312 C459.158203,303.285091 455.622106,293.058143 448.549805,285.63916 C441.477504,278.220178 431.077217,274.510742 417.348633,274.510742 L371.170898,274.510742 L371.170898,357.713867 Z M688.59082,414.083984 L649.069336,414.083984 L649.069336,521 L576.058594,521 L576.058594,218.140625 L695.24707,218.140625 C731.163266,218.140625 759.244039,226.114178 779.490234,242.061523 C799.736429,258.008869 809.859375,280.542823 809.859375,309.664062 C809.859375,330.742293 805.595257,348.214774 797.066895,362.082031 C788.538532,375.949288 775.191497,387.181598 757.025391,395.779297 L820.259766,517.879883 L820.259766,521 L742.048828,521 L688.59082,414.083984 Z M649.069336,357.713867 L695.24707,357.713867 C709.114327,357.713867 719.549281,354.073767 726.552246,346.793457 C733.555211,339.513147 737.056641,329.355534 737.056641,316.320312 C737.056641,303.285091 733.520543,293.058143 726.448242,285.63916 C719.375941,278.220178 708.975655,274.510742 695.24707,274.510742 L649.069336,274.510742 L649.069336,357.713867 Z M1110.43066,375.810547 C1110.43066,405.347804 1104.95318,431.487191 1093.99805,454.229492 C1083.04291,476.971793 1067.47715,494.478943 1047.30029,506.751465 C1027.12343,519.023987 1004.1388,525.160156 978.345703,525.160156 C952.552605,525.160156 929.671975,519.231993 909.703125,507.375488 C889.734275,495.518984 874.168513,478.566516 863.005371,456.517578 C851.842229,434.46864 845.983401,409.161276 845.428711,380.594727 L845.428711,363.538086 C845.428711,333.862156 850.871528,307.688102 861.757324,285.015137 C872.643121,262.342172 888.243551,244.835023 908.559082,232.493164 C928.874613,220.151305 951.997917,213.980469 977.929688,213.980469 C1003.58411,213.980469 1026.46474,220.08197 1046.57227,232.285156 C1066.67979,244.488342 1082.31489,261.856821 1093.47803,284.391113 C1104.64117,306.925406 1110.29199,332.752784 1110.43066,361.874023 L1110.43066,375.810547 Z M1036.17188,363.12207 C1036.17188,333.030123 1031.14507,310.18416 1021.09131,294.583496 C1011.03755,278.982832 996.650484,271.182617 977.929688,271.182617 C941.320129,271.182617 921.975596,298.639374 919.895508,353.553711 L919.6875,375.810547 C919.6875,405.486477 924.610302,428.297772 934.456055,444.245117 C944.301807,460.192463 958.931544,468.166016 978.345703,468.166016 C996.789155,468.166016 1011.00288,460.331133 1020.9873,444.661133 C1030.97173,428.991133 1036.0332,406.457178 1036.17188,377.058594 L1036.17188,363.12207 Z M1260.6123,414.083984 L1221.09082,414.083984 L1221.09082,521 L1148.08008,521 L1148.08008,218.140625 L1267.26855,218.140625 C1303.18475,218.140625 1331.26552,226.114178 1351.51172,242.061523 C1371.75791,258.008869 1381.88086,280.542823 1381.88086,309.664062 C1381.88086,330.742293 1377.61674,348.214774 1369.08838,362.082031 C1360.56002,375.949288 1347.21298,387.181598 1329.04688,395.779297 L1392.28125,517.879883 L1392.28125,521 L1314.07031,521 L1260.6123,414.083984 Z M1221.09082,357.713867 L1267.26855,357.713867 C1281.13581,357.713867 1291.57077,354.073767 1298.57373,346.793457 C1305.5767,339.513147 1309.07812,329.355534 1309.07812,316.320312 C1309.07812,303.285091 1305.54203,293.058143 1298.46973,285.63916 C1291.39743,278.220178 1280.99714,274.510742 1267.26855,274.510742 L1221.09082,274.510742 L1221.09082,357.713867 Z" id="ERROR"></path>
        </g>
    </g>
</svg>