<?xml version="1.0" encoding="UTF-8" standalone="no"?>
<svg width="54px" height="44px" viewBox="0 0 54 44" version="1.1" xmlns="http://www.w3.org/2000/svg" xmlns:xlink="http://www.w3.org/1999/xlink">
    <!-- Generator: sketchtool 39 (31667) - http://www.bohemiancoding.com/sketch -->
    <title>4315D9A1-6D32-4D5F-BFD8-916FF26270D4</title>
    <desc>Created with sketchtool.</desc>
    <defs></defs>
    <g id="Default-Pages" stroke="none" stroke-width="1" fill="none" fill-rule="evenodd">
        <g id="Login" transform="translate(-693.000000, -324.000000)" fill="#424242">
            <g id="Logo---Ultima" transform="translate(693.000000, 324.000000)">
                <path d="M53.7553043,11.5572826 C53.6749357,11.3646039 53.4874088,11.2399294 53.2792745,11.2399294 L50.4447335,11.2399294 L51.988224,9.37290344 C52.1159896,9.21937868 52.1417488,9.0060926 52.0572586,8.82577828 C51.9727685,8.64546397 51.7914238,8.5300628 51.5915325,8.5300628 L20.4857672,8.5300628 L11.6647908,0.141840754 C11.4937498,-0.0199269478 11.2340972,-0.0467165035 11.0362666,0.0789883349 L6.08741136,3.18554643 C6.08638099,3.1865768 6.08535062,3.18863754 6.08328989,3.1896679 C6.08225952,3.19069827 6.08019879,3.19069827 6.07813805,3.19172864 L0.232863061,7.03912099 C0.218437916,7.0483943 0.211225343,7.06281944 0.197830565,7.07415349 C0.168980275,7.09682157 0.144251454,7.12155039 0.121583368,7.14937031 C0.100976018,7.17409914 0.0844901373,7.19882796 0.0690346244,7.22664788 C0.0525487439,7.25652854 0.0412147011,7.2864092 0.0309110259,7.31835059 C0.0206073506,7.35132235 0.0144251454,7.38429411 0.0103036753,7.41932661 C0.00927330776,7.43684286 0,7.451268 0,7.46981462 C0,7.4863005 0.0072125727,7.49866491 0.00927330776,7.51515079 C0.0123644103,7.54915292 0.019576983,7.58109431 0.0298806583,7.61509644 C0.0401843336,7.64909857 0.0515183764,7.68103996 0.0690346244,7.71298135 C0.0762471971,7.72637613 0.0772775646,7.74080128 0.0855205049,7.75419605 C0.0927330776,7.7655301 0.106127855,7.76965157 0.114370796,7.77995524 C0.150433659,7.82632178 0.192678728,7.86444538 0.242136369,7.89535641 C0.260682985,7.90669045 0.27510813,7.92111559 0.293654746,7.9303889 C0.361659002,7.96336066 0.435845465,7.98499838 0.516214132,7.98499838 L7.55465472,7.98499838 L9.14348145,11.9488223 C9.14348145,11.9498526 9.14554218,11.950883 9.14554218,11.9519134 L9.14554218,11.9550045 L19.4821892,36.719888 L13.3803527,42.2570831 C13.2227065,42.4003042 13.1691274,42.6249243 13.2464049,42.8237853 C13.3226521,43.0226462 13.5143005,43.1535029 13.7265562,43.1535029 L22.5114698,43.1535029 C22.579474,43.1535029 22.6464479,43.1390777 22.7093003,43.1133185 C22.7721527,43.0875593 22.828823,43.0494357 22.8762199,43.0020388 L27.4943271,38.3664153 C27.5005093,38.3736279 27.5025701,38.3829012 27.5097826,38.3901138 L31.8826624,42.9927655 C31.9805473,43.0968326 32.1093433,43.1256829 32.2587466,43.1535029 C40.1977284,43.1091971 52.2427248,43.0690127 52.8094269,43.1277437 C52.863006,43.1452599 52.9176155,43.1535029 52.972225,43.1535029 C53.1484179,43.1535029 53.3204892,43.0638609 53.4163134,42.9082754 C53.7140896,42.4240027 53.7120289,42.4188508 38.4986523,27.3219058 L53.6429943,12.121924 C53.7913672,11.9714903 53.8346426,11.7499613 53.7553043,11.5572826 L53.7553043,11.5572826 Z M50.4972822,9.55939996 L49.1093771,11.2399294 L23.3357638,11.2399294 L21.5686835,9.55939996 L50.4972822,9.55939996 L50.4972822,9.55939996 Z M11.2454312,1.16293497 L21.8417309,11.2399294 L9.9698362,11.2399294 L6.99928662,3.82849577 L11.2454312,1.16293497 L11.2454312,1.16293497 Z M2.23486717,6.95360048 L6.11729202,4.39828901 L7.14147734,6.95360048 L2.23486717,6.95360048 Z M28.2557687,37.6791602 C28.242374,37.664735 28.2238273,37.6585528 28.2094022,37.6472188 L31.9001787,33.9430475 L31.9001787,41.5141881 L28.2557687,37.6791602 L28.2557687,37.6791602 Z M51.7831809,42.0922243 C49.837847,42.063374 45.0043929,42.0510096 32.9305462,42.1179835 L32.9305462,33.243428 C32.9305462,33.1486342 32.8975744,33.064144 32.8532686,32.9868665 L37.7722432,28.0493453 C42.6232135,32.8642527 49.4906131,39.7172272 51.7831809,42.0922243 L51.7831809,42.0922243 Z M22.6907537,41.7274742 L10.3943476,12.2702969 L49.2227176,12.2702969 C49.2598108,12.2785399 49.296904,12.2898739 49.3339973,12.2898739 C49.3638779,12.2898739 49.3916978,12.2754488 49.4215785,12.2702969 L52.038712,12.2702969 L22.6907537,41.7274742 L22.6907537,41.7274742 Z" id="Logo-Ultima"></path>
            </g>
        </g>
    </g>
</svg>