<?xml version="1.0" encoding="UTF-8" standalone="no"?>
<svg width="917px" height="436px" viewBox="0 0 917 436" version="1.1" xmlns="http://www.w3.org/2000/svg" xmlns:xlink="http://www.w3.org/1999/xlink">
    <!-- Generator: sketchtool 39 (31667) - http://www.bohemiancoding.com/sketch -->
    <title>8931E9BA-C84B-4069-9EAC-D5DE09A5F7A1</title>
    <desc>Created with sketchtool.</desc>
    <defs></defs>
    <g id="Default-Pages" stroke="none" stroke-width="1" fill="none" fill-rule="evenodd" opacity="0.100000001">
        <g id="Access" transform="translate(-219.000000, -91.000000)" fill="#FFFFFF">
            <path d="M487.1875,355.412109 L530.257812,355.412109 L530.257812,431.076172 L487.1875,431.076172 L487.1875,521 L389.115234,521 L389.115234,431.076172 L225.273438,431.076172 L219.453125,371.126953 L389.115234,98.1542969 L389.115234,97.28125 L487.1875,97.28125 L487.1875,355.412109 Z M312.869141,355.412109 L389.115234,355.412109 L389.115234,225.037109 L383.003906,234.931641 L312.869141,355.412109 Z M867.544922,347.845703 C867.544922,405.079062 854.69186,449.215991 828.985352,480.257812 C803.278843,511.299634 767.04776,526.820312 720.291016,526.820312 C673.146249,526.820312 636.672655,511.20263 610.869141,479.966797 C585.065626,448.730964 572.164062,404.691039 572.164062,347.845703 L572.164062,270.435547 C572.164062,213.202188 585.017124,169.065259 610.723633,138.023438 C636.430142,106.981616 672.758229,91.4609375 719.708984,91.4609375 C766.65974,91.4609375 803.036329,107.07862 828.839844,138.314453 C854.643358,169.550286 867.544922,213.687215 867.544922,270.726562 L867.544922,347.845703 Z M769.472656,257.921875 C769.472656,227.462087 765.495482,204.714593 757.541016,189.678711 C749.586549,174.642828 736.975998,167.125 719.708984,167.125 C702.829994,167.125 690.558958,174.109305 682.895508,188.078125 C675.232058,202.046945 671.109378,223.193869 670.527344,251.519531 L670.527344,359.777344 C670.527344,391.4012 674.504518,414.536711 682.458984,429.18457 C690.413451,443.83243 703.024002,451.15625 720.291016,451.15625 C736.975995,451.15625 749.295533,444.026438 757.25,429.766602 C765.204467,415.506765 769.278645,393.147288 769.472656,362.6875 L769.472656,257.921875 Z M1135.86133,521 L1037.49805,521 L1037.49805,207.867188 L940.880859,236.095703 L940.880859,161.595703 L1126.83984,97.28125 L1135.86133,97.28125 L1135.86133,521 Z" id="401"></path>
        </g>
    </g>
</svg>